<?xml version="1.0" encoding="utf-8"?>
<!-- Generator: Adobe Illustrator 18.0.0, SVG Export Plug-In . SVG Version: 6.00 Build 0)  -->
<!DOCTYPE svg PUBLIC "-//W3C//DTD SVG 1.1//EN" "http://www.w3.org/Graphics/SVG/1.1/DTD/svg11.dtd">
<svg version="1.1" id="Layer_1" xmlns="http://www.w3.org/2000/svg" xmlns:xlink="http://www.w3.org/1999/xlink" x="0px" y="0px"
	 viewBox="450 165 300 270" enable-background="new 450 165 300 270" xml:space="preserve">
<g>
	<path fill="#3C773D" d="M747.9,374.3c-0.4-3.3-1.2-6.6-2.2-9.8c-1.3-4.2-3-8.2-5.9-11.6c-3.8-4.4-8-5.4-13.3-3.2
		c-8.1,3.4-16.5,5.9-25.1,8c-19.9,4.7-40.2,6.2-60.6,6.2c-19.9-0.1-39.7-1.7-59.4-4.5c-14.6-2-29.1-4.7-43.4-8.1
		c-2.6-0.6-2.6-0.6-3.5,1.9c-1.9,5.5-2.7,11.2-3.2,17c-0.5,5.6-0.6,11.2-0.2,16.9c0.5,6.8,1.7,13.4,4.3,19.7
		c1.7,4.2,4.1,7.9,7.4,10.9c3,2.8,6.8,4.4,10.7,5.6c10.9,3.3,22.2,4.9,33.5,6.2c18.1,2,36.2,3,56.4,3c14,0,30-0.6,45.9-2.5
		c14.1-1.7,28-4.2,41.2-9.9c4.2-1.9,7.8-4.5,10.4-8.3c4.4-6.5,6.5-13.8,7.3-21.6c0.3-3.3,0.2-6.7,0.1-10.1
		C748.3,378.2,748.1,376.3,747.9,374.3z"/>
	<path fill="#3C773D" d="M747.9,225.8c-0.4,3.3-1.2,6.6-2.2,9.8c-1.3,4.2-3,8.2-5.9,11.6c-3.8,4.4-8,5.4-13.3,3.2
		c-8.1-3.4-16.5-5.9-25.1-8c-19.9-4.7-40.2-6.2-60.6-6.2c-19.9,0.1-39.7,1.7-59.4,4.5c-14.6,2-29.1,4.7-43.4,8.1
		c-2.6,0.6-2.6,0.6-3.5-1.9c-1.9-5.5-2.7-11.2-3.2-17c-0.5-5.6-0.6-11.2-0.2-16.9c0.5-6.8,1.7-13.4,4.3-19.7
		c1.7-4.2,4.1-7.9,7.4-10.9c3-2.8,6.8-4.4,10.7-5.6c10.9-3.3,22.2-4.9,33.5-6.2c18.1-2,36.2-3,56.4-3c14,0,30,0.6,45.9,2.5
		c14.1,1.7,28,4.2,41.2,9.9c4.2,1.9,7.8,4.5,10.4,8.3c4.4,6.5,6.5,13.8,7.3,21.6c0.3,3.3,0.2,6.7,0.1,10.1
		C748.3,222,748.1,223.9,747.9,225.8z"/>
	<path fill="#3C773D" d="M542.6,261c-1.5,0-2.8,0.1-4,0.7c-3.9,1.5-6.5,5.1-6.5,9.5v50.2c0,5.8,4.6,9.7,10.3,9.7h153.5
		c1.5,0,2.7,0,4-0.5c3.8-1.6,6.2-4.9,6.2-9.2V271c0-5.7-4.2-10-9.9-10H542.6z"/>
	<polygon fill="#3C773D" points="502,411 491,411 491,400 478,400 478,411 468,411 468,398 454,398 454,425 515,425 515,398 
		502,398 	"/>
	<polygon fill="#3C773D" points="501,372 454,372 454,387 515,387 515,362 501,362 	"/>
	<path fill="#3C773D" d="M454,318.9l13.8,2.7c3.5,0.7,7.1,1.4,10.8,2l9.3,1.5c-9.4,1.5-19.8,3.4-33.8,5.9v17.4l61,6.5v-13l-41.7-3.5
		l41.7-9V320l-41.7-8.5l41.7-3.7v-13.6l-61,6.9V318.9z"/>
	<polygon fill="#3C773D" points="502,270 491,270 491,258 478,258 478,270 468,270 468,256 454,256 454,283 515,283 515,256 
		502,256 	"/>
	<polygon fill="#3C773D" points="501,231 454,231 454,244 515,244 515,220 501,220 	"/>
	<path fill="#3C773D" d="M508,175.5c-5.6-3.8-13.5-5.7-23.7-5.7c-10.2,0-18,1.9-23.5,5.8c-5.5,3.9-8.2,9.5-8.2,16.9
		c0,6.9,2.7,12.3,8.2,16c5.5,3.9,13.1,5.8,22.8,5.8c10.6,0,18.7-1.9,24.3-5.8c5.6-3.8,8.4-9.4,8.4-16.7
		C516.4,184.8,513.6,179.3,508,175.5z M498.9,197.9c-2.5,1.2-7.5,1.9-15,1.9c-11.7,0-17.5-2.5-17.5-7.4c0-5.3,5.9-7.9,17.7-7.9
		c7.3,0,12.3,0.7,14.8,2.1c2.5,1.4,3.8,3.4,3.8,5.9C502.7,194.8,501.4,196.6,498.9,197.9z"/>
</g>
</svg>
